# xmcd
#
# Track frame offsets:
#	150
#	20551
#	47325
#	57181
#
# Disc length: 1032 seconds
#
# Revision: 1
# Processed by: cddbd v1.5PL3 Copyright (c) Steve Scherf et al.
# Submitted via: CDex 1.50Beta5
#
DISCID=28040604
DTITLE=うさだあかり(井口裕香) - ストロベリー
DYEAR=2003
DGENRE=Pop
TTITLE0=ストロベリー
TTITLE1=突撃レポート「あかりちゃんインタビュー！」
TTITLE2=ボイスメッセージ
TTITLE3=ストロベリー
EXTD=
EXTT0=
EXTT1=
EXTT2=
EXTT3=
PLAYORDER=
